<svg xmlns="http://www.w3.org/2000/svg" width="93" height="113" viewBox="0 0 93 113">
    <g fill="none" fill-rule="evenodd">
        <g fill="#2B84EB" fill-rule="nonzero">
            <path d="M170.255 136.343c-.964-1.188-1.816-2.47-2.542-3.832l-5.745 2.339c-1.156.47-2.475-.083-2.944-1.236-.47-1.154.087-2.47 1.244-2.941l5.71-2.324c-.455-1.466-.772-2.993-.938-4.566h-12.046c-1.25 0-2.261-1.01-2.261-2.255 0-1.245 1.012-2.254 2.26-2.254h11.991c.128-1.593.412-3.142.835-4.63l-5.55-2.26c-1.158-.471-1.715-1.788-1.245-2.941.47-1.153 1.788-1.707 2.944-1.236l5.49 2.234c.775-1.542 1.713-2.988 2.789-4.315l-8.387-8.45c-.88-.886-.876-2.316.008-3.193.883-.877 2.313-.87 3.193.016l8.342 8.405c1.203-1.017 2.508-1.916 3.898-2.68l-2.285-5.423c-.485-1.15.052-2.475 1.2-2.959 1.148-.483 2.47.058 2.956 1.208l2.269 5.385c1.61-.52 3.295-.871 5.034-1.035V86.148c0-1.249 1.01-2.261 2.255-2.261 1.246 0 2.255 1.012 2.255 2.261V97.4c1.596.15 3.145.459 4.634.91l2.175-5.424c.465-1.159 1.778-1.723 2.934-1.26 1.156.464 1.716 1.78 1.251 2.939l-2.189 5.459c1.398.737 2.715 1.61 3.932 2.602l8.678-8.743c.88-.886 2.31-.893 3.193-.016.884.877.887 2.307.007 3.193l-8.664 8.73c3.505 4.167 5.619 9.555 5.619 15.44 0 13.218-10.667 23.935-23.825 23.935-5.833 0-11.176-2.106-15.317-5.603l-8.352 8.415c-.88.886-2.31.893-3.193.016-.884-.877-.888-2.307-.008-3.193l8.395-8.457zm43.916-26.334c0-1.249 1.01-2.261 2.255-2.261 1.245 0 2.255 1.012 2.255 2.261v.3c0 1.249-1.01 2.261-2.255 2.261-1.245 0-2.255-1.012-2.255-2.26v-.3zm0 22.739c0-1.25 1.01-2.261 2.255-2.261 1.245 0 2.255 1.012 2.255 2.26v.3c0 1.25-1.01 2.262-2.255 2.262-1.245 0-2.255-1.013-2.255-2.261v-.3zm-16.081 16.156c0-1.249 1.01-2.261 2.255-2.261 1.245 0 2.254 1.012 2.254 2.261v.3c0 1.249-1.009 2.261-2.254 2.261-1.246 0-2.255-1.012-2.255-2.26v-.301zm-22.633 0c0-1.249 1.01-2.261 2.254-2.261 1.246 0 2.255 1.012 2.255 2.261v.3c0 1.249-1.01 2.261-2.255 2.261-1.245 0-2.254-1.012-2.254-2.26v-.301zm48.414-25.12c-1.248 0-2.26-1.01-2.26-2.256 0-1.245 1.012-2.254 2.26-2.254h.298c1.249 0 2.261 1.01 2.261 2.254 0 1.246-1.012 2.255-2.26 2.255h-.299zm-11.638 24.253c-.88-.886-.876-2.316.007-3.193.884-.877 2.314-.87 3.193.016l.211.212c.88.887.876 2.316-.007 3.194-.884.877-2.314.87-3.193-.017l-.211-.212zm-38.773-14.924l27.063-27.264c-3.263-2.537-7.354-4.046-11.793-4.046-10.653 0-19.302 8.69-19.302 19.426 0 4.478 1.505 8.6 4.032 11.884zm30.278-24.102l-27.132 27.334c3.315 2.696 7.534 4.31 12.124 4.31 10.653 0 19.303-8.69 19.303-19.426 0-4.631-1.61-8.881-4.295-12.218zm-3.94 62.101v10.379c0 .54-.17.987-.511 1.343-.341.356-.791.534-1.351.534-.536 0-.98-.178-1.333-.534-.353-.356-.529-.803-.529-1.343v-16.415c0-.564.176-1.018.53-1.361.352-.344.796-.516 1.332-.516.56 0 1.01.172 1.35.516.341.343.512.797.512 1.361v.39c.54-.535 1.16-.996 1.862-1.383 1.29-.712 2.738-1.068 4.344-1.068 1.68 0 3.182.362 4.509 1.086 1.326.724 2.373 1.785 3.14 3.184.766 1.398 1.15 3.116 1.15 5.152v9.054c0 .54-.177.987-.53 1.343-.353.356-.797.534-1.333.534-.535 0-.98-.178-1.332-.534-.353-.356-.53-.803-.53-1.343v-9.054c0-1.398-.255-2.54-.766-3.423s-1.199-1.54-2.063-1.969c-.864-.43-1.856-.644-2.975-.644-1.022 0-1.947.209-2.775.626-.827.417-1.484.975-1.971 1.674-.487.7-.73 1.503-.73 2.411zm-56.936 20.831c-.536 0-.98-.178-1.333-.534-.353-.355-.529-.803-.529-1.343v-16.782c.024-1.939.475-3.68 1.35-5.227.877-1.545 2.07-2.766 3.578-3.662 1.51-.895 3.213-1.343 5.112-1.343 1.922 0 3.638.448 5.147 1.343 1.51.896 2.708 2.117 3.596 3.662.888 1.546 1.333 3.288 1.333 5.227 0 1.938-.408 3.674-1.223 5.207-.816 1.534-1.93 2.748-3.34 3.644-1.412.895-3.007 1.343-4.783 1.343-1.436 0-2.757-.3-3.961-.901-1.205-.602-2.233-1.417-3.085-2.448v9.937c0 .54-.17.988-.511 1.343-.341.356-.791.534-1.351.534zm8.178-11.777c1.24 0 2.348-.3 3.322-.902.973-.6 1.746-1.423 2.318-2.466.572-1.042.858-2.214.858-3.514 0-1.325-.286-2.51-.858-3.552-.572-1.043-1.345-1.865-2.318-2.466-.974-.601-2.081-.902-3.322-.902-1.217 0-2.319.301-3.304.902-.986.601-1.759 1.423-2.319 2.466-.56 1.043-.84 2.227-.84 3.552 0 1.3.28 2.472.84 3.514.56 1.043 1.333 1.865 2.319 2.466.985.601 2.087.902 3.304.902zm32.632-6.882v8.207c0 .54-.177.987-.53 1.343-.352.356-.796.534-1.332.534-.535 0-.98-.178-1.332-.534-.353-.356-.53-.803-.53-1.343v-1.367c-.642.79-1.396 1.46-2.263 2.01-1.412.896-3.006 1.344-4.783 1.344-1.776 0-3.37-.448-4.782-1.343-1.412-.896-2.525-2.11-3.34-3.644-.816-1.533-1.224-3.27-1.224-5.207 0-1.939.445-3.68 1.333-5.227.888-1.545 2.093-2.766 3.614-3.662 1.521-.895 3.231-1.343 5.13-1.343 1.898 0 3.601.448 5.11 1.343 1.51.896 2.708 2.117 3.596 3.662.889 1.546 1.333 3.288 1.333 5.227zm-10.04 6.882c1.242 0 2.349-.3 3.323-.902.973-.6 1.74-1.423 2.3-2.466.56-1.042.84-2.214.84-3.514 0-1.325-.28-2.51-.84-3.552-.56-1.043-1.327-1.865-2.3-2.466-.974-.601-2.081-.902-3.323-.902-1.217 0-2.318.301-3.304.902-.985.601-1.764 1.423-2.336 2.466-.572 1.043-.858 2.227-.858 3.552 0 1.3.286 2.472.858 3.514.572 1.043 1.35 1.865 2.336 2.466.986.601 2.087.902 3.304.902zm15.73 3.165c-.536 0-.98-.178-1.333-.534-.353-.355-.529-.803-.529-1.343v-16.378c0-.564.176-1.018.53-1.361.352-.344.796-.516 1.332-.516.56 0 1.01.172 1.35.516.341.343.512.797.512 1.361v16.378c0 .54-.17.988-.511 1.343-.341.356-.791.534-1.351.534zm0-23.407c-.657 0-1.223-.24-1.698-.718-.474-.478-.712-1.049-.712-1.711 0-.663.238-1.233.712-1.712.475-.478 1.04-.717 1.698-.717.657 0 1.223.239 1.697.717.475.479.712 1.05.712 1.712 0 .662-.237 1.233-.712 1.711-.474.479-1.04.718-1.697.718zm36.789 23.554c-1.704 0-3.28-.264-4.728-.791-1.448-.528-2.574-1.196-3.377-2.006-.365-.392-.517-.84-.456-1.343.06-.503.298-.914.712-1.233.487-.393.967-.558 1.442-.497.474.061.882.276 1.223.644.414.466 1.077.902 1.99 1.307.912.404 1.928.607 3.048.607 1.412 0 2.488-.233 3.23-.7.743-.466 1.126-1.067 1.15-1.803.025-.736-.322-1.374-1.04-1.914-.718-.54-2.026-.981-3.924-1.325-2.458-.49-4.241-1.226-5.349-2.208-1.107-.981-1.66-2.183-1.66-3.607 0-1.25.364-2.288 1.095-3.11.73-.821 1.667-1.435 2.81-1.84 1.145-.405 2.337-.607 3.578-.607 1.607 0 3.03.258 4.272.773 1.241.515 2.227 1.227 2.957 2.135.34.392.499.803.474 1.233-.024.429-.23.79-.62 1.085-.39.27-.852.356-1.387.258-.536-.098-.986-.32-1.351-.663-.609-.588-1.266-.993-1.972-1.214-.705-.221-1.52-.331-2.446-.331-1.07 0-1.977.184-2.72.552-.742.368-1.113.907-1.113 1.619 0 .442.116.84.347 1.196.231.356.687.675 1.369.957.681.282 1.68.558 2.994.828 1.825.368 3.267.834 4.326 1.399 1.058.564 1.819 1.22 2.281 1.969.463.748.694 1.613.694 2.594 0 1.13-.298 2.147-.894 3.055-.597.908-1.473 1.632-2.629 2.172-1.156.54-2.598.81-4.326.81zm-70.549 8.282v3.559c0 .185-.058.338-.175.46-.117.122-.271.183-.463.183-.184 0-.336-.06-.457-.183-.12-.122-.181-.275-.181-.46v-3.61c0-.53-.13-.923-.388-1.18-.259-.256-.597-.384-1.014-.384-.434 0-.793.151-1.077.454-.283.303-.425.69-.425 1.161v3.559c0 .185-.059.338-.175.46-.117.122-.272.183-.464.183-.183 0-.335-.06-.456-.183-.121-.122-.182-.275-.182-.46v-5.616c0-.193.06-.349.182-.467.12-.117.273-.176.456-.176.192 0 .347.059.464.176.112.114.17.262.175.445.131-.13.277-.245.438-.344.384-.235.822-.353 1.314-.353.476 0 .897.105 1.264.316.286.163.522.386.709.669.203-.255.453-.466.75-.632.421-.235.903-.353 1.445-.353.476 0 .897.105 1.264.316.368.21.653.519.858.927.204.408.307.902.307 1.483v3.609c0 .185-.059.338-.176.46-.117.122-.27.183-.463.183-.183 0-.336-.06-.457-.183-.12-.122-.181-.275-.181-.46v-3.61c0-.53-.13-.923-.388-1.18-.259-.256-.597-.384-1.014-.384-.434 0-.79.151-1.07.454-.28.303-.42.69-.42 1.161zm12.518 1.186c.046.288.139.553.279.795.208.362.496.648.863.858.368.21.789.316 1.265.316.258 0 .523-.049.794-.145.272-.097.49-.209.658-.335.125-.092.26-.14.406-.145.146-.004.274.04.382.133.142.126.217.265.225.416.009.152-.058.282-.2.391-.284.227-.636.412-1.057.555-.422.143-.824.215-1.208.215-.693 0-1.308-.15-1.847-.448-.538-.299-.96-.71-1.264-1.237-.304-.525-.457-1.129-.457-1.81 0-.69.144-1.298.432-1.824.288-.525.687-.938 1.196-1.236.509-.299 1.093-.448 1.752-.448.65 0 1.21.145 1.677.435.467.29.824.69 1.07 1.199.247.509.37 1.096.37 1.76 0 .16-.055.292-.163.398-.109.105-.246.157-.413.157h-4.76zm.014-1.01h4.17c-.038-.28-.112-.539-.225-.775-.159-.332-.384-.595-.676-.789-.292-.193-.647-.29-1.064-.29-.476 0-.883.105-1.22.315-.338.21-.595.499-.77.865-.1.209-.172.434-.215.675zM183.361 196c-.651 0-1.237-.154-1.759-.46-.522-.308-.935-.726-1.24-1.256-.304-.53-.456-1.127-.456-1.792s.14-1.26.42-1.785c.279-.526.66-.943 1.145-1.25.484-.307 1.03-.46 1.64-.46.492 0 .946.103 1.364.309.417.206.767.486 1.051.839v-3.407c0-.193.06-.35.181-.467.121-.118.274-.177.457-.177.192 0 .347.06.463.177.117.118.176.274.176.467v5.754c0 .665-.153 1.262-.457 1.792-.305.53-.716.948-1.233 1.255-.517.307-1.102.461-1.752.461zm0-1.136c.425 0 .805-.103 1.139-.309.333-.206.596-.49.788-.852.192-.361.288-.765.288-1.21 0-.455-.096-.859-.288-1.212-.192-.354-.455-.633-.788-.84-.334-.206-.714-.309-1.14-.309-.417 0-.794.103-1.132.31-.338.206-.605.485-.801.839-.196.353-.294.757-.294 1.211 0 .446.098.85.294 1.211.196.362.463.646.8.852.339.206.716.31 1.134.31zm11.882 1.086c-.183 0-.336-.061-.457-.183-.12-.122-.181-.276-.181-.461v-5.615c0-.194.06-.35.181-.467.121-.118.274-.177.457-.177.192 0 .347.06.463.177.117.118.176.273.176.467v5.615c0 .185-.059.339-.176.46-.116.123-.27.184-.463.184zm0-8.026c-.225 0-.42-.082-.582-.246-.163-.164-.244-.36-.244-.587 0-.227.081-.422.244-.586.163-.164.357-.246.582-.246.226 0 .42.082.582.246.163.164.244.36.244.586 0 .227-.081.423-.244.587-.162.164-.356.246-.582.246zM206.788 196c-.668 0-1.262-.154-1.784-.46-.521-.308-.93-.724-1.226-1.25-.297-.526-.445-1.12-.445-1.785 0-.682.146-1.287.438-1.817.292-.53.693-.945 1.202-1.243.509-.299 1.093-.448 1.752-.448.493 0 .943.094 1.352.284.409.189.776.473 1.102.851.116.135.158.274.125.417-.034.143-.125.269-.276.378-.116.084-.246.112-.388.082-.141-.03-.27-.103-.388-.22-.409-.438-.918-.657-1.527-.657-.425 0-.8.1-1.126.297-.326.198-.58.473-.764.826-.183.354-.275.77-.275 1.25 0 .454.094.858.282 1.211.187.353.448.633.782.84.334.205.722.308 1.164.308.292 0 .549-.035.77-.107.22-.071.423-.183.607-.334.133-.11.271-.17.413-.183.142-.013.267.027.375.12.142.117.221.25.238.397.017.147-.033.28-.15.398-.6.563-1.352.845-2.253.845zm16.389-3.495v2.814c0 .185-.06.338-.182.46-.12.122-.273.183-.457.183-.183 0-.336-.06-.457-.183-.12-.122-.181-.275-.181-.46v-.469c-.22.271-.479.5-.776.69-.484.306-1.03.46-1.64.46-.609 0-1.156-.154-1.64-.46-.484-.308-.865-.724-1.145-1.25s-.42-1.12-.42-1.785c0-.665.153-1.262.458-1.792.304-.53.717-.949 1.239-1.256.521-.307 1.108-.46 1.758-.46.651 0 1.235.153 1.753.46.517.307.928.726 1.233 1.256.304.53.457 1.127.457 1.792zm-3.443 2.36c.426 0 .806-.104 1.14-.31.333-.206.596-.488.788-.845.192-.358.288-.76.288-1.205 0-.455-.096-.86-.288-1.218-.192-.358-.455-.64-.788-.845-.334-.207-.714-.31-1.14-.31-.417 0-.794.103-1.132.31-.338.206-.605.487-.801.845-.196.358-.295.763-.295 1.218 0 .446.099.847.295 1.205.196.357.463.64.8.845.339.206.716.31 1.133.31zm12.396 1.085c-.367 0-.692-.101-.976-.303-.284-.202-.505-.478-.663-.827-.159-.349-.238-.75-.238-1.205v-6.89c0-.185.058-.336.175-.454.117-.118.267-.177.45-.177.184 0 .334.06.451.177.117.118.175.27.175.454v6.89c0 .311.059.568.176.77.117.202.267.303.45.303h.313c.167 0 .303.059.407.176.104.118.156.27.156.455s-.079.336-.237.454c-.159.118-.363.177-.614.177h-.025z" transform="translate(-141 -83)"/>
        </g>
    </g>
</svg>
