<svg width="24" height="24" viewBox="0 0 24 24" xmlns="http://www.w3.org/2000/svg">
    <defs>
        <filter id="a">
            <feColorMatrix in="SourceGraphic" values="0 0 0 0 0.509804 0 0 0 0 0.568627 0 0 0 0 0.623529 0 0 0 1.000000 0"/>
        </filter>
    </defs>
    <g filter="url(#a)" transform="translate(-1512 -112)" fill="none" fill-rule="evenodd">
        <path d="M1512 112h24v24h-24z"/>
        <path d="m1527.87 127.25-3.37-2v-4.53c0-.4-.32-.72-.72-.72h-.06c-.4 0-.72.32-.72.72v4.72c0 .35.18.68.49.86l3.65 2.19c.34.2.78.1.98-.24.21-.35.1-.8-.25-1zm5.31-10.24-3.08-2.56c-.42-.35-1.05-.3-1.41.13-.35.42-.29 1.05.13 1.41l3.07 2.56c.42.35 1.05.3 1.41-.13a1 1 0 0 0-.12-1.41zm-17.08 1.54 3.07-2.56c.43-.36.49-.99.13-1.41a.988.988 0 0 0-1.4-.13l-3.08 2.56a1 1 0 0 0-.12 1.41c.35.43.98.48 1.4.13zm7.9-2.55a9 9 0 1 0 .001 18.001A9 9 0 0 0 1524 116zm0 16c-3.86 0-7-3.14-7-7s3.14-7 7-7 7 3.14 7 7-3.14 7-7 7z" fill="#000" fill-rule="nonzero"/>
    </g>
</svg>
