<svg width="44" height="37" viewBox="0 0 44 37" xmlns="http://www.w3.org/2000/svg">
    <path d="m17.335 3.414-3.262 4.894a1.207 1.207 0 0 1-1.004.537H5.828a2.413 2.413 0 0 0-2.414 2.414v19.913a2.413 2.413 0 0 0 2.414 2.414h32.586a2.413 2.413 0 0 0 2.414-2.414V11.26a2.413 2.413 0 0 0-2.414-2.414h-7.242c-.403 0-.78-.202-1.004-.537l-3.262-4.894h-9.57zM31.818 6.43h6.596a4.826 4.826 0 0 1 4.827 4.828v19.913A4.826 4.826 0 0 1 38.414 36H5.828A4.826 4.826 0 0 1 1 31.172V11.26A4.826 4.826 0 0 1 5.828 6.43h6.595l3.263-4.894A1.207 1.207 0 0 1 16.69 1h10.862c.403 0 .78.202 1.004.537l3.262 4.894zm-9.697 22.328a8.448 8.448 0 1 1 0-16.897 8.448 8.448 0 0 1 0 16.897zm0-2.414a6.035 6.035 0 1 0-.002-12.07 6.035 6.035 0 0 0 .002 12.07z" fill="#2B84EB" fill-rule="nonzero" stroke="#2B84EB"/>
</svg>
