<svg width="24" height="24" viewBox="0 0 24 24" xmlns="http://www.w3.org/2000/svg">
    <defs>
        <filter id="a">
            <feColorMatrix in="SourceGraphic" values="0 0 0 0 0.713725 0 0 0 0 0.749020 0 0 0 0 0.788235 0 0 0 1.000000 0"/>
        </filter>
    </defs>
    <g filter="url(#a)" transform="translate(-426 -112)" fill="none" fill-rule="evenodd">
        <path d="M430 121h16v-3a1 1 0 0 0-1-1h-2v1a1 1 0 0 1-2 0v-1h-6v1a1 1 0 0 1-2 0v-1h-2a1 1 0 0 0-1 1v3zm0 2v9a1 1 0 0 0 1 1h14a1 1 0 0 0 1-1v-9h-16zm5-8h6v-1a1 1 0 0 1 2 0v1h2a3 3 0 0 1 3 3v14a3 3 0 0 1-3 3h-14a3 3 0 0 1-3-3v-14a3 3 0 0 1 3-3h2v-1a1 1 0 0 1 2 0v1z" fill="#0D2A4A" fill-rule="nonzero"/>
    </g>
</svg>
