<svg width="24" height="24" viewBox="0 0 24 24" xmlns="http://www.w3.org/2000/svg">
    <defs>
        <filter id="a">
            <feColorMatrix in="SourceGraphic" values="0 0 0 0 1.000000 0 0 0 0 0.458824 0 0 0 0 0.376471 0 0 0 1.000000 0"/>
        </filter>
    </defs>
    <g filter="url(#a)" transform="translate(-1233 -112)" fill="none" fill-rule="evenodd">
        <path d="M1233 112h24v24h-24z"/>
        <path d="M1251.3 117.71a.996.996 0 0 0-1.41 0l-4.89 4.88-4.89-4.89a.996.996 0 1 0-1.41 1.41l4.89 4.89-4.89 4.89a.996.996 0 1 0 1.41 1.41l4.89-4.89 4.89 4.89a.996.996 0 1 0 1.41-1.41l-4.89-4.89 4.89-4.89c.38-.38.38-1.02 0-1.4z" fill="#000" fill-rule="nonzero"/>
    </g>
</svg>
