<svg width="32" height="32" viewBox="0 0 32 32" xmlns="http://www.w3.org/2000/svg">
    <g fill="none" fill-rule="evenodd">
        <circle cx="16" cy="16" r="16" fill="#DFEDFC"/>
        <path d="M22.032 11.74a1.254 1.254 0 1 0-1.773-1.773l-9.653 9.655-.666 2.438 2.438-.666 9.655-9.653h-.001zm-.147-3.642a2.855 2.855 0 0 1 1.279 4.774l-9.804 9.804a.802.802 0 0 1-.355.206l-3.995 1.09a.8.8 0 0 1-.982-.982l1.09-3.995a.806.806 0 0 1 .206-.355l9.804-9.804a2.854 2.854 0 0 1 2.757-.738z" fill="#2B84EB" fill-rule="nonzero"/>
    </g>
</svg>
