<svg width="32" height="32" viewBox="0 0 32 32" xmlns="http://www.w3.org/2000/svg">
    <g fill="none" fill-rule="evenodd">
        <circle cx="16" cy="16" r="16" fill="#DFEDFC"/>
        <path d="m16.652 21.62 4.522-2.584a.695.695 0 0 0 .348-.602v-5.19l-4.87 2.817v5.558zm-1.391 0v-5.56l-4.87-2.817v5.192c0 .248.132.478.345.6l4.525 2.584zm.366 1.657a2.078 2.078 0 0 1-.711-.252l-4.873-2.784A2.087 2.087 0 0 1 9 18.435v-5.566c0-.327.077-.644.218-.927a.711.711 0 0 1 .174-.29c.171-.236.392-.439.654-.59l2.26-1.292a.691.691 0 0 1 .385-.22l2.222-1.269a2.085 2.085 0 0 1 2.084-.001l4.873 2.784c.26.15.481.353.651.59a.713.713 0 0 1 .174.288c.142.283.218.6.218.928v5.565c0 .746-.399 1.433-1.046 1.807L17 23.023c-.224.13-.466.214-.713.254a.687.687 0 0 1-.66 0zm2.073-9.43-4.84-2.791-1.746.998 4.843 2.802 1.744-1.009H17.7zm1.391-.804 1.708-.989-4.495-2.568a.696.696 0 0 0-.698.001l-1.346.77 4.83 2.786h.001z" fill="#2B84EB" fill-rule="nonzero"/>
    </g>
</svg>
